<svg xmlns="http://www.w3.org/2000/svg" width="754" height="101" viewBox="-2.48 36.72 753.89 100.67" role="img" aria-label="connectyourpro">
  <path fill="#e9ecf2" d="M44.38 106.1C40.9 108.12 35.87 109.13 29.3 109.13C21.61 109.13 15.4 106.8 10.64 102.15C5.89 97.49 3.52 91.49 3.52 84.13C3.52 75.63 6.06 68.94 11.16 64.04C16.25 59.14 23.06 56.69 31.59 56.69C37.48 56.69 41.75 57.47 44.38 59.03L44.38 72.12C41.16 69.71 37.57 68.51 33.59 68.51C29.17 68.51 25.66 69.8 23.07 72.39C20.48 74.98 19.19 78.55 19.19 83.11C19.19 87.53 20.43 91.01 22.9 93.53C25.37 96.05 28.78 97.31 33.11 97.31C36.95 97.31 40.71 96.11 44.38 93.7ZM78.32 109.13C69.99 109.13 63.44 106.8 58.67 102.12C53.9 97.45 51.51 91.11 51.51 83.11C51.51 74.84 53.99 68.37 58.94 63.7C63.88 59.03 70.57 56.69 79 56.69C87.3 56.69 93.82 59.03 98.54 63.7C103.26 68.37 105.62 74.54 105.62 82.23C105.62 90.53 103.18 97.09 98.32 101.9C93.45 106.72 86.78 109.13 78.32 109.13ZM78.71 68.51C75.07 68.51 72.23 69.76 70.21 72.27C68.2 74.77 67.19 78.32 67.19 82.91C67.19 92.51 71.06 97.31 78.81 97.31C86.2 97.31 89.89 92.38 89.89 82.52C89.89 73.18 86.17 68.51 78.71 68.51ZM163.92 107.91L148.54 107.91L148.54 80.13C148.54 72.38 145.77 68.51 140.23 68.51C137.57 68.51 135.37 69.53 133.64 71.58C131.92 73.63 131.05 76.24 131.05 79.39L131.05 107.91L115.63 107.91L115.63 57.91L131.05 57.91L131.05 65.82L131.25 65.82C134.93 59.73 140.28 56.69 147.31 56.69C158.38 56.69 163.92 63.56 163.92 77.29ZM224.41 107.91L209.03 107.91L209.03 80.13C209.03 72.38 206.27 68.51 200.73 68.51C198.06 68.51 195.87 69.53 194.14 71.58C192.42 73.63 191.55 76.24 191.55 79.39L191.55 107.91L176.12 107.91L176.12 57.91L191.55 57.91L191.55 65.82L191.75 65.82C195.43 59.73 200.78 56.69 207.81 56.69C218.88 56.69 224.41 63.56 224.41 77.29ZM281.54 87.3L248.93 87.3C249.45 94.56 254.02 98.19 262.65 98.19C268.15 98.19 272.98 96.89 277.15 94.29L277.15 105.42C272.53 107.89 266.52 109.13 259.13 109.13C251.06 109.13 244.79 106.89 240.33 102.42C235.87 97.94 233.64 91.7 233.64 83.69C233.64 75.39 236.05 68.82 240.87 63.96C245.69 59.11 251.61 56.69 258.64 56.69C265.93 56.69 271.57 58.85 275.56 63.18C279.55 67.51 281.54 73.39 281.54 80.81ZM267.24 77.83C267.24 70.67 264.34 67.09 258.54 67.09C256.07 67.09 253.93 68.12 252.12 70.17C250.32 72.22 249.22 74.77 248.83 77.83ZM328.61 106.1C325.13 108.12 320.1 109.13 313.53 109.13C305.84 109.13 299.63 106.8 294.87 102.15C290.12 97.49 287.74 91.49 287.74 84.13C287.74 75.63 290.29 68.94 295.39 64.04C300.48 59.14 307.29 56.69 315.82 56.69C321.71 56.69 325.98 57.47 328.61 59.03L328.61 72.12C325.39 69.71 321.79 68.51 317.82 68.51C313.4 68.51 309.89 69.8 307.3 72.39C304.71 74.98 303.42 78.55 303.42 83.11C303.42 87.53 304.65 91.01 307.13 93.53C309.6 96.05 313 97.31 317.33 97.31C321.18 97.31 324.93 96.11 328.61 93.7ZM368.95 107.32C366.67 108.53 363.23 109.13 358.64 109.13C347.77 109.13 342.33 103.48 342.33 92.19L342.33 69.29L334.23 69.29L334.23 57.91L342.33 57.91L342.33 47.12L357.71 42.72L357.71 57.91L368.95 57.91L368.95 69.29L357.71 69.29L357.71 89.5C357.71 94.71 359.78 97.31 363.92 97.31C365.54 97.31 367.22 96.84 368.95 95.9ZM425.24 57.91L404.93 111.91C400.05 124.9 392.69 131.4 382.86 131.4C379.12 131.4 376.04 130.97 373.63 130.13L373.63 117.82C375.68 119.03 377.91 119.63 380.32 119.63C384.29 119.63 387.06 117.76 388.62 114.01L391.26 107.81L370.95 57.91L388.04 57.91L397.36 88.33C397.95 90.22 398.4 92.45 398.73 95.02L398.93 95.02C399.22 93.13 399.76 90.93 400.54 88.43L409.96 57.91ZM454.3 109.13C445.96 109.13 439.41 106.8 434.64 102.12C429.87 97.45 427.49 91.11 427.49 83.11C427.49 74.84 429.96 68.37 434.91 63.7C439.86 59.03 446.55 56.69 454.98 56.69C463.28 56.69 469.79 59.03 474.51 63.7C479.23 68.37 481.59 74.54 481.59 82.23C481.59 90.53 479.16 97.09 474.29 101.9C469.43 106.72 462.76 109.13 454.3 109.13ZM454.69 68.51C451.04 68.51 448.21 69.76 446.19 72.27C444.17 74.77 443.16 78.32 443.16 82.91C443.16 92.51 447.04 97.31 454.79 97.31C462.17 97.31 465.87 92.38 465.87 82.52C465.87 73.18 462.14 68.51 454.69 68.51ZM539.11 107.91L523.73 107.91L523.73 100.29L523.49 100.29C519.68 106.18 514.58 109.13 508.2 109.13C496.61 109.13 490.82 102.12 490.82 88.09L490.82 57.91L506.2 57.91L506.2 86.72C506.2 93.78 509 97.31 514.6 97.31C517.37 97.31 519.58 96.35 521.24 94.41C522.9 92.47 523.73 89.84 523.73 86.52L523.73 57.91L539.11 57.91ZM584.72 71.83C582.86 70.82 580.7 70.31 578.22 70.31C574.87 70.31 572.25 71.54 570.36 74C568.47 76.46 567.53 79.8 567.53 84.03L567.53 107.91L552.1 107.91L552.1 57.91L567.53 57.91L567.53 67.19L567.72 67.19C570.17 60.42 574.56 57.03 580.91 57.03C582.54 57.03 583.81 57.23 584.72 57.62Z"/>
  <path fill="#e63b3b" d="M608.5 102.1L608.3 102.1L608.3 130.91L592.87 130.91L592.87 57.91L608.3 57.91L608.3 65.43L608.5 65.43C612.3 59.6 617.66 56.69 624.56 56.69C631.04 56.69 636.04 58.91 639.58 63.35C643.11 67.8 644.87 73.84 644.87 81.49C644.87 89.83 642.81 96.52 638.7 101.56C634.58 106.61 629.1 109.13 622.27 109.13C616.24 109.13 611.65 106.79 608.5 102.1ZM608.06 81.59L608.06 85.6C608.06 89.05 608.97 91.86 610.79 94.04C612.61 96.22 615.01 97.31 617.97 97.31C621.48 97.31 624.21 95.96 626.15 93.24C628.08 90.52 629.05 86.67 629.05 81.69C629.05 72.9 625.63 68.51 618.8 68.51C615.64 68.51 613.06 69.7 611.06 72.09C609.06 74.49 608.06 77.65 608.06 81.59ZM687.5 71.83C685.64 70.82 683.48 70.31 681.01 70.31C677.65 70.31 675.03 71.54 673.14 74C671.26 76.46 670.31 79.8 670.31 84.03L670.31 107.91L654.88 107.91L654.88 57.91L670.31 57.91L670.31 67.19L670.51 67.19C672.95 60.42 677.34 57.03 683.69 57.03C685.32 57.03 686.59 57.23 687.5 57.62ZM718.12 109.13C709.78 109.13 703.23 106.8 698.46 102.12C693.69 97.45 691.31 91.11 691.31 83.11C691.31 74.84 693.78 68.37 698.73 63.7C703.68 59.03 710.37 56.69 718.8 56.69C727.1 56.69 733.61 59.03 738.33 63.7C743.05 68.37 745.41 74.54 745.41 82.23C745.41 90.53 742.98 97.09 738.11 101.9C733.24 106.72 726.58 109.13 718.12 109.13ZM718.51 68.51C714.86 68.51 712.03 69.76 710.01 72.27C707.99 74.77 706.98 78.32 706.98 82.91C706.98 92.51 710.86 97.31 718.6 97.31C725.99 97.31 729.69 92.38 729.69 82.52C729.69 73.18 725.96 68.51 718.51 68.51Z"/>
</svg>
